<svg width="268" height="287" viewBox="0 0 268 287" fill="none" xmlns="http://www.w3.org/2000/svg">
<g clip-path="url(#clip0_657_618)">
<path d="M178.4 231.6C178.4 243.7 178.5 255.8 178.4 268C178.3 280.3 171.6 286.8 159.1 286.8C142.6 286.8 126.2 286.8 109.7 286.8C97.2003 286.8 90.5003 280.4 90.4003 268C90.3003 243.8 90.4003 219.5 90.5003 195.3C90.5003 189.5 90.5003 189.6 85.1003 191C67.7003 195.7 50.3003 200.5 32.8003 205C22.7003 207.6 14.0003 204.4 7.40026 196.4C-0.199742 187.1 -1.99975 176.7 3.80025 165.8C10.2003 153.8 19.0003 143.3 26.8003 132.2C55.2003 92.3 83.8003 52.5 112.2 12.5C124.1 -4.29999 144.5 -4.5 156.5 12.3C191.6 61.3 226.6 110.4 261.6 159.4C272.5 174.7 269.3 193.8 254.4 202.1C248.3 205.5 241.9 206.4 235.2 204.6C217.6 199.9 200 195.2 182.5 190.3C179.1 189.3 178 189.7 178 193.6C178.2 206.2 178.1 218.8 178.1 231.4C178.3 231.6 178.3 231.6 178.4 231.6ZM107 44.4C106.3 44.5 106.1 45 106.2 45.6V45.5C105.2 45.9 104.7 46.8 104.4 47.8L104.2 48.2C103.7 48.9 103.3 49.5 102.8 50.2L102.7 50.3C102 50.9 101 51.4 101.3 52.6C99.6003 54.7 97.9003 56.7 96.3003 58.8C83.2003 77.1 70.1003 95.3 57.1003 113.6C46.1003 128.9 35.2003 144.3 24.3003 159.6C24.0003 160.1 23.7003 160.6 23.4003 161.1V161C22.5003 161.2 22.3003 162 22.1003 162.8L22.2003 163L22.1003 162.8C21.2003 163.3 20.7003 164.1 20.5003 165.1C19.1003 165.9 18.6003 167.4 18.1003 168.8C17.5003 169 17.3003 169.4 17.4003 170C12.3003 176.9 13.2003 183.5 20.0003 189.3L20.1003 189.4C23.3003 192.8 27.1003 192.4 31.1003 191.3C47.2003 187 63.2003 182.5 79.3003 178.3C87.6003 176.1 95.7003 173.3 104.2 172.1C104.1 203.8 104.1 235.5 104 267.1C104 268.7 103.4 270.5 105.2 271.6C106 273.1 107.5 272.6 108.7 272.6C125.9 272.6 143 272.6 160.2 272.6C161.2 272.6 162.6 273.1 163.2 271.7L163.3 271.8C164.4 271.5 164.6 270.7 164.5 269.7L164.3 269.8C165.6 260.1 164.8 250.5 164.6 240.8C164.6 218.9 164.6 196.9 164.6 175C164.6 174.4 164.6 173.8 164.6 173.1C164.8 172.7 164.9 172.3 165.1 171.8C170.1 172.9 175.1 174.1 180.1 175.2L179.9 175.1C181.1 176.2 182.6 176.2 184 176.3L183.8 176.2C184.7 177.2 186 177 187.1 177.3C204.4 182 221.6 186.8 238.9 191.4C245.2 193.1 251.4 189.5 253.7 183.5C255.9 177.8 254.4 172.8 251 168C236 147 221 125.9 205.9 104.9C199.2 95.6 193.3 85.9 185.6 77.3C185.3 76.5 185.5 75.3 184.3 75L184.4 75.1C184.3 74.3 184 73.5 183.1 73.3C182.8 72 182.2 71 181 70.3V70.4C180.7 69.1 180 68.1 178.9 67.4C178.2 66.1 177.8 64.7 176.4 63.9L176.5 64C176 63.4 175.6 62.8 175.1 62.3L175.2 62.4C175.2 61.5 174.7 60.9 174 60.5C173.3 58.9 172.5 57.4 171.1 56.4C170.8 56 170.5 55.7 170.1 55.3L170.2 55.4C169.9 54.1 169.3 53 168.1 52.4C167.9 51.3 167.4 50.6 166.4 50.1V50.2C166.2 49.4 165.9 48.7 165.1 48.4V48.5C165.1 47.9 164.8 47.4 164.2 47.3L164.3 47.4C164 46.1 163.2 45.1 162.2 44.4L162.3 44.5C162 44.1 161.7 43.7 161.4 43.3L161.5 43.4C161.1 42.8 160.6 42.2 160.2 41.6L160.3 41.7C160.3 40.8 159.9 40.2 159.1 39.8C158.5 39 157.9 38.3 157.3 37.5L157.4 37.6C157.2 37.2 156.9 36.7 156.7 36.3L156.5 36.2L156.8 36.3C156.4 35.1 155.8 34 154.6 33.4L154.7 33.5C154.6 32.7 154.3 31.9 153.4 31.6L153.5 31.7C153.2 31.3 152.9 30.9 152.6 30.4L152.7 30.5C152.4 30.1 152.2 29.7 151.9 29.3H151.6L151.8 29.2C151.3 28.1 150.9 26.9 149.8 26.3L149.4 26.4L149.8 26.3C149.3 25.7 148.9 25.1 148.4 24.5L148.5 24.6C148.4 23.2 147.5 22.3 146.4 21.6V21.7C146.1 21.3 145.8 20.9 145.5 20.4L145.6 20.5C145.5 19.6 145.1 18.9 144.2 18.5C144 18.2 143.8 18 143.6 17.7C143.2 17.3 142.8 17 142.3 16.6H142.4C142.2 15.6 141.4 15.4 140.6 15.3V15.4C137.3 12.8 133.8 13.2 130.2 14.6C128.1 15.4 126 16.2 125.3 18.6C124.1 19.3 123.4 20.3 123.2 21.7L123.3 21.6C122.2 22.3 121.4 23.3 121.2 24.6L121.3 24.5C120.9 25.1 120.4 25.7 120 26.2L119.9 26.3C118.5 27.3 117.6 28.7 117.1 30.4L117.2 30.3C116.6 30.5 116.3 30.9 116.3 31.6V31.5C115.4 31.7 115.2 32.5 115 33.3L115.1 33.6L115 33.3C114.1 33.8 113.5 34.5 113.4 35.6C112.2 36.3 111.6 37.3 111.3 38.6C110.2 39.3 109.3 40.2 109.2 41.6L109.3 41.5C108.4 41.8 108.2 42.5 108 43.3L108.3 43.5L108.1 43.2C107.5 43.7 107.2 44.1 107 44.4Z" fill="#050504"/>
<path d="M165 172C164.8 172.4 164.7 172.8 164.5 173.3C163.8 173.9 163.9 174.5 164.5 175.2C164.5 197.1 164.5 219.1 164.5 241C163.4 250.7 164 260.3 164.2 270L164.4 269.9C163.2 270.2 163 270.9 163.2 272L163.1 271.9C143.8 271.9 124.4 271.8 105.1 271.8C105.1 240.5 105.1 209.2 105 177.9C105 176 105.8 173.9 104.1 172.2C103.2 168.4 100.6 171.1 99.3996 171.4C82.2996 175.9 65.1996 180.8 48.0996 185.2C38.8996 187.5 29.9996 192 20.0996 189.5L19.9996 189.4C20.3996 188.3 20.0996 187.4 19.3996 186.7C14.0996 181.7 16.2996 175.8 17.3996 170.1C17.9996 169.9 18.2996 169.5 18.0996 168.8C20.4996 168.6 20.4996 166.8 20.4996 165.1C21.9996 165 22.5996 164.3 22.0996 162.8L22.1996 163L22.0996 162.8C23.2996 162.8 23.4996 162 23.3996 161V161.1C24.0996 160.8 24.3996 160.3 24.2996 159.6C35.1996 144.3 46.1996 128.9 57.0996 113.6C70.1996 95.2999 83.1996 77.0999 96.2996 58.7999C97.7996 56.5999 99.5996 54.5999 101.3 52.5999C102.6 52.3999 103.4 51.7999 102.7 50.2999L102.8 50.1999C104.2 50.1999 104.2 49.1999 104.2 48.1999L104.4 47.7999C105.6 47.4999 106.4 46.8999 106.2 45.4999V45.5999C106.8 45.3999 107.1 44.9999 107 44.3999L106.9 44.4999C107.6 44.4999 107.9 44.0999 107.8 43.2999L108 43.5999L107.7 43.3999C109 43.3999 109.1 42.5999 109 41.5999L108.9 41.6999C111 41.6999 111.2 40.2999 111 38.6999C113.1 38.5999 113.2 37.2999 113.1 35.6999C114.6 35.5999 115.2 34.8999 114.7 33.3999L114.8 33.6999L114.7 33.3999C116 33.3999 116.1 32.5999 116 31.5999V31.6999C116.6 31.4999 116.9 31.0999 116.9 30.3999L116.8 30.4999C118.9 29.8999 120.4 28.8999 119.6 26.3999L119.7 26.2999C121.1 26.3999 121.1 25.5999 121 24.5999L120.9 24.6999C122.5 24.2999 123.2 23.2999 123 21.6999L122.9 21.7999C124.5 21.3999 125.2 20.3999 125 18.6999C127.7 18.3999 129.4 16.5999 131.3 14.8999C134.3 15.0999 137.4 15.2999 140.4 15.4999V15.3999C140.5 16.5999 141.2 16.7999 142.2 16.6999H142.1C142.2 17.3999 142.7 17.6999 143.4 17.7999C143.6 18.0999 143.8 18.2999 144 18.5999C144 19.5999 144.2 20.3999 145.4 20.5999L145.3 20.4999C145.6 20.8999 145.9 21.2999 146.2 21.7999V21.6999C146.1 23.1999 146.2 24.6999 148.3 24.6999L148.2 24.5999C148.1 25.5999 148.3 26.3999 149.6 26.3999L149.2 26.4999L149.6 26.3999C149.1 28.1999 149.5 29.2999 151.6 29.2999L151.4 29.3999H151.7C151.5 30.0999 151.8 30.4999 152.5 30.5999L152.4 30.4999C152.7 30.8999 153 31.2999 153.3 31.7999L153.2 31.6999C153.2 32.6999 153.4 33.3999 154.5 33.5999L154.4 33.4999C154.2 35.1999 154.5 36.3999 156.6 36.3999L156.3 36.2999L156.5 36.3999C156.3 37.0999 156.6 37.4999 157.2 37.6999L157.1 37.5999C156.9 38.9999 157.5 39.6999 158.9 39.8999C158.9 40.7999 159.1 41.5999 160.1 41.7999L160 41.6999C159.9 42.6999 160.1 43.4999 161.3 43.4999L161.2 43.3999C161.1 44.0999 161.4 44.4999 162.1 44.5999L162 44.4999C161.8 46.1999 162.3 47.2999 164.1 47.4999L164 47.3999C164 48.0999 164.3 48.4999 164.9 48.5999V48.4999C164.8 49.4999 165.1 50.2999 166.2 50.2999V50.1999C165.8 51.6999 166.4 52.3999 167.9 52.4999C167.8 53.9999 167.9 55.4999 170 55.4999L169.9 55.3999C170.2 55.7999 170.5 56.0999 170.9 56.4999C170.8 58.5999 171.4 60.1999 173.8 60.5999C173.8 61.4999 174 62.2999 175 62.4999L174.9 62.3999C174.8 63.3999 175 64.1999 176.3 64.0999C176.3 64.0999 176.2 63.9999 176.2 64.0999C176.2 65.8999 176.8 67.1999 178.7 67.5999C178.7 69.0999 178.8 70.4999 180.8 70.5999V70.4999C180.7 71.9999 180.9 73.3999 182.9 73.4999C182.9 74.4999 183.1 75.1999 184.2 75.2999L184.1 75.1999C183.8 76.3999 184.1 77.1999 185.4 77.4999C193.1 85.9999 199 95.7999 205.7 105.1C220.8 126.1 235.8 147.1 250.8 168.2C254.2 172.9 255.6 178 253.5 183.7C251.2 189.8 244.9 193.3 238.7 191.6C221.4 187 204.2 182.2 186.9 177.5C186.2 175.9 184.9 176.1 183.6 176.4L183.8 176.5C182.8 174.7 181.2 175.2 179.7 175.3L179.9 175.4C175.3 173.1 170.6 170.6 165 172Z" fill="#FCE302"/>
<path d="M20.0996 189.5C29.9996 192.1 38.9996 187.6 48.0996 185.2C65.2996 180.8 82.2996 175.9 99.3996 171.4C100.6 171.1 103.2 168.4 104.1 172.2C95.5996 173.4 87.4996 176.2 79.1996 178.4C63.0996 182.6 47.0996 187 30.9996 191.4C27.1996 192.5 23.2996 192.9 20.0996 189.5Z" fill="#FCE302"/>
<path d="M104.2 172.3C105.9 173.9 105.1 176.1 105.1 178C105.2 209.3 105.2 240.6 105.2 271.9C103.5 270.7 104 268.9 104 267.4C104.1 235.7 104.1 204 104.2 172.3Z" fill="#FCE302"/>
<path d="M105.2 271.8C124.5 271.8 143.9 271.9 163.2 271.9C162.5 273.3 161.2 272.8 160.2 272.8C143 272.8 125.9 272.8 108.7 272.8C107.5 272.8 106 273.4 105.2 271.8Z" fill="#FCE302"/>
<path d="M17.3996 170.1C16.2996 175.8 14.0996 181.7 19.3996 186.7C20.1996 187.4 20.4996 188.3 19.9996 189.4C13.1996 183.7 12.2996 177 17.3996 170.1Z" fill="#FCE302"/>
<path d="M164.3 270C164.1 260.3 163.5 250.7 164.6 241C164.8 250.7 165.6 260.4 164.3 270Z" fill="#FCE302"/>
<path d="M165 172C170.6 170.5 175.2 173.1 180 175.4C175 174.3 170 173.2 165 172Z" fill="#FCE302"/>
<path d="M140.4 15.5C137.4 15.3 134.3 15.1 131.3 14.9C130.8 14.8 130.4 14.8 129.9 14.7C133.6 13.3 137.1 12.9 140.4 15.5Z" fill="#FCE302"/>
<path d="M130 14.7C130.5 14.8 130.9 14.7999 131.4 14.8999C129.5 16.5999 127.8 18.4 125.1 18.7C125.8 16.3 127.9 15.5 130 14.7Z" fill="#FCE302"/>
<path d="M174 60.7001C171.6 60.4001 171 58.8001 171.1 56.6001C172.5 57.7001 173.3 59.2001 174 60.7001Z" fill="#FCE302"/>
<path d="M119.6 26.3999C120.4 28.8999 118.9 29.8999 116.8 30.4999C117.3 28.7999 118.2 27.3999 119.6 26.3999Z" fill="#FCE302"/>
<path d="M20.4 165.2C20.4 166.9 20.4 168.7 18 168.9C18.5 167.5 19 166 20.4 165.2Z" fill="#FCE302"/>
<path d="M113.2 35.7C113.3 37.3 113.2 38.6 111.1 38.7C111.3 37.4 112 36.3 113.2 35.7Z" fill="#FCE302"/>
<path d="M183.1 73.6001C181.1 73.5001 181 72.1001 181 70.6001C182.2 71.3001 182.8 72.3001 183.1 73.6001Z" fill="#FCE302"/>
<path d="M111.2 38.6001C111.4 40.2001 111.2 41.6001 109.1 41.6001C109.2 40.2001 110 39.3001 111.2 38.6001Z" fill="#FCE302"/>
<path d="M170.2 55.6001C168.1 55.5001 168 54.1001 168.1 52.6001C169.3 53.3001 169.8 54.4001 170.2 55.6001Z" fill="#FCE302"/>
<path d="M179 67.7C177 67.4 176.5 66 176.5 64.2C177.9 64.9 178.3 66.4 179 67.7Z" fill="#FCE302"/>
<path d="M148.2 24.7C146.1 24.7 146 23.2 146.1 21.7C147.3 22.4 148.1 23.3 148.2 24.7Z" fill="#FCE302"/>
<path d="M181.1 70.6001C179.1 70.5001 179 69.1001 179 67.6001C180.1 68.4001 180.8 69.3001 181.1 70.6001Z" fill="#FCE302"/>
<path d="M156.6 36.2999C154.5 36.3999 154.2 35.0999 154.4 33.3999C155.6 33.9999 156.1 35.0999 156.6 36.2999Z" fill="#FCE302"/>
<path d="M151.6 29.2999C149.5 29.2999 149.1 28.1999 149.6 26.3999C150.7 26.9999 151.1 28.1999 151.6 29.2999Z" fill="#FCE302"/>
<path d="M125.1 18.7C125.3 20.3 124.6 21.2999 123 21.7999C123.2 20.2999 123.9 19.4 125.1 18.7Z" fill="#FCE302"/>
<path d="M114.8 33.3999C115.3 34.8999 114.7 35.5999 113.2 35.6999C113.3 34.5999 113.9 33.8999 114.8 33.3999Z" fill="#FCE302"/>
<path d="M123.1 21.6001C123.3 23.2001 122.6 24.2001 121 24.6001C121.1 23.3001 122 22.4001 123.1 21.6001Z" fill="#FCE302"/>
<path d="M185.6 77.4999C184.3 77.1999 184 76.4 184.3 75.2C185.5 75.6 185.3 76.6999 185.6 77.4999Z" fill="#FCE302"/>
<path d="M168.1 52.6001C166.6 52.5001 166 51.8 166.4 50.3C167.4 50.8 168 51.6001 168.1 52.6001Z" fill="#FCE302"/>
<path d="M179.9 175.4C181.4 175.3 183.1 174.7 184 176.6C182.5 176.5 181 176.4 179.9 175.4Z" fill="#FCE302"/>
<path d="M22.0004 162.9C22.5004 164.4 21.8004 165.1 20.4004 165.2C20.6004 164.2 21.1004 163.4 22.0004 162.9Z" fill="#FCE302"/>
<path d="M164.4 47.5C162.6 47.2 162 46.1 162.3 44.5C163.3 45.3 164.1 46.2 164.4 47.5Z" fill="#FCE302"/>
<path d="M102.7 50.3C103.4 51.8 102.7 52.4001 101.3 52.6001C101 51.4001 102 50.9 102.7 50.3Z" fill="#FCE302"/>
<path d="M106.2 45.6001C106.4 47.0001 105.7 47.6001 104.4 47.9001C104.7 46.9001 105.1 46.0001 106.2 45.6001Z" fill="#FCE302"/>
<path d="M183.8 176.4C185.1 176.1 186.4 175.9 187.1 177.5C186 177.2 184.7 177.4 183.8 176.4Z" fill="#FCE302"/>
<path d="M159 39.8C157.6 39.6 157 38.9 157.2 37.5C157.8 38.3 158.4 39 159 39.8Z" fill="#FCE302"/>
<path d="M145.4 20.6001C144.2 20.4001 144 19.6001 144 18.6001C145 19.0001 145.3 19.7001 145.4 20.6001Z" fill="#FCE302"/>
<path d="M121 24.6001C121.1 25.6001 121.1 26.4001 119.7 26.3001C120.2 25.7001 120.6 25.2001 121 24.6001Z" fill="#FCE302"/>
<path d="M149.5 26.4001C148.3 26.4001 148.1 25.6001 148.1 24.6001C148.6 25.2001 149.1 25.8001 149.5 26.4001Z" fill="#FCE302"/>
<path d="M116.1 31.6001C116.2 32.6001 116.1 33.4001 114.8 33.4001C115 32.6001 115.2 31.9001 116.1 31.6001Z" fill="#FCE302"/>
<path d="M154.5 33.5001C153.4 33.4001 153.1 32.6001 153.2 31.6001C154 32.0001 154.3 32.7001 154.5 33.5001Z" fill="#FCE302"/>
<path d="M166.5 50.4001C165.3 50.3001 165.1 49.6001 165.2 48.6001C166 48.9001 166.3 49.6001 166.5 50.4001Z" fill="#FCE302"/>
<path d="M175.2 62.5999C174.2 62.3999 174 61.6 174 60.7C174.7 61.1 175.2 61.6999 175.2 62.5999Z" fill="#FCE302"/>
<path d="M176.5 64.3001C175.3 64.3001 175.1 63.5001 175.1 62.6001C175.6 63.1001 176 63.7001 176.5 64.3001Z" fill="#FCE302"/>
<path d="M104.2 48.3C104.2 49.3 104.2 50.3 102.8 50.3C103.3 49.6 103.7 48.9 104.2 48.3Z" fill="#FCE302"/>
<path d="M23.3 161.1C23.4 162.1 23.2 162.9 22 162.9C22.2 162.1 22.4 161.4 23.3 161.1Z" fill="#FCE302"/>
<path d="M184.4 75.4001C183.3 75.3001 183 74.5001 183.1 73.6001C184 73.8001 184.3 74.5001 184.4 75.4001Z" fill="#FCE302"/>
<path d="M161.5 43.4001C160.3 43.4001 160.1 42.6001 160.2 41.6001C160.6 42.2001 161.1 42.8001 161.5 43.4001Z" fill="#FCE302"/>
<path d="M109.1 41.5C109.2 42.5 109.1 43.3 107.8 43.3C108 42.6 108.2 41.9 109.1 41.5Z" fill="#FCE302"/>
<path d="M164.6 175.2C164 174.6 163.9 174 164.6 173.3C164.6 173.9 164.6 174.5 164.6 175.2Z" fill="#FCE302"/>
<path d="M160.2 41.7001C159.2 41.5001 159 40.7 159 39.8C159.8 40.2 160.2 40.8001 160.2 41.7001Z" fill="#FCE302"/>
<path d="M142.2 16.8C141.2 16.9 140.4 16.6 140.4 15.5C141.2 15.6 142 15.8 142.2 16.8Z" fill="#FCE302"/>
<path d="M163.3 272C163.1 270.9 163.3 270.2 164.5 269.9C164.6 270.9 164.4 271.7 163.3 272Z" fill="#FCE302"/>
<path d="M18.1 168.9C18.3 169.6 18 170 17.4 170.1C17.3 169.6 17.4 169.1 18.1 168.9Z" fill="#FCE302"/>
<path d="M162.3 44.5999C161.6 44.4999 161.3 44.0999 161.4 43.3999C161.7 43.6999 162 44.1999 162.3 44.5999Z" fill="#FCE302"/>
<path d="M152.4 30.5999C151.7 30.4999 151.4 30.0999 151.6 29.3999C151.8 29.7999 152.1 30.1999 152.4 30.5999Z" fill="#FCE302"/>
<path d="M165.2 48.7C164.6 48.5 164.3 48.1 164.3 47.5C164.9 47.6 165.2 48 165.2 48.7Z" fill="#FCE302"/>
<path d="M146.2 21.8C145.9 21.4 145.6 21 145.3 20.5C145.6 20.9 145.9 21.4 146.2 21.8Z" fill="#D8CD4F"/>
<path d="M157.3 37.6001C156.6 37.4001 156.3 37 156.6 36.3C156.8 36.8 157.1 37.2001 157.3 37.6001Z" fill="#FCE302"/>
<path d="M153.2 31.8C152.9 31.4 152.6 31 152.3 30.5C152.6 30.9 152.9 31.3 153.2 31.8Z" fill="#D8CD4F"/>
<path d="M107.8 43.3C107.9 44 107.6 44.4001 106.9 44.5001C107.2 44.1001 107.5 43.7 107.8 43.3Z" fill="#FCE302"/>
<path d="M143.4 17.7999C142.7 17.6999 142.3 17.4 142.1 16.7C142.6 17.1 143 17.4999 143.4 17.7999Z" fill="#FCE302"/>
<path d="M171.1 56.7001C170.8 56.3001 170.5 56.0001 170.1 55.6001C170.4 55.9001 170.7 56.3001 171.1 56.7001Z" fill="#D8CD4F"/>
<path d="M116.9 30.3999C117 31.0999 116.7 31.4999 116 31.6999C116 31.0999 116.3 30.5999 116.9 30.3999Z" fill="#FCE302"/>
<path d="M107 44.3999C107.1 45.0999 106.8 45.4999 106.2 45.5999C106.1 44.9999 106.3 44.5999 107 44.3999Z" fill="#FCE302"/>
<path d="M24.3004 159.7C24.3004 160.4 24.1004 160.9 23.4004 161.2C23.6004 160.7 23.9004 160.2 24.3004 159.7Z" fill="#FCE302"/>
</g>
<defs>
<clipPath id="clip0_657_618">
<rect width="268" height="287" fill="white"/>
</clipPath>
</defs>
</svg>
